P3
4 4 
 15
0 0 0
0 0 0
0 0 0
4 0 15
0 0 0
0 15 7
0 0 0
0 8 0
0 0 0
0 0 0
0 15 7
0 0 0
15 14 15
0 0 9
0 0 0
0 0 0
