P3
4 4 
 15
0 3 0
0 0 0
0 0 10
15 0 13
0 0 0
0 15 7
0 0 0
0 0 0
7 0 0
0 0 12
0 15 7
0 0 12
15 0 15
0 0 0
0 0 0
0 0 0
