P3
4 4 
 15
0 0 0
0 0 0
0 12 0
15 0 15
0 0 0
0 15 7
0 0 0
9 0 0
0 0 8
1 0 0
0 15 7
0 0 6
15 0 3
14 0 0
0 7 5
0 0 0
