P3
4 4 
 15
0 0 0
0 10 0
0 0 0
15 0 0
0 0 0
0 15 7
0 0 0
0 3 0
0 0 0
11 0 0
6 15 7
0 0 0
15 0 15
0 0 0
5 2 0
0 0 1
