P3
4 4 
 15
0 0 0
0 0 0
0 0 0
15 0 13
0 9 12
0 15 7
7 0 0
0 0 0
0 2 0
0 0 0
0 6 5
0 8 7
15 0 15
0 0 0
0 0 0
0 0 0
