P3
4 4 
 15
0 0 0
0 0 0
0 0 0
15 0 15
0 0 0
6 15 7
0 0 0
11 0 11
0 0 0
0 0 0
0 5 12
0 0 10
15 0 15
0 0 0
0 0 0
0 0 0
