P3
4 4 
 15
0 8 0
14 2 10
0 0 0
15 0 15
0 14 0
0 13 7
0 0 0
0 0 0
0 0 0
0 0 0
0 15 7
14 0 0
15 0 15
0 0 0
0 0 0
0 0 6
