P3
4 4 
 15
0 0 0
0 0 0
0 6 0
15 0 15
0 0 2
1 15 9
0 0 0
0 0 0
0 0 0
0 0 0
0 15 12
0 0 0
15 0 15
0 0 0
0 0 11
0 0 0
