P3
4 4 
 15
0 0 0
0 0 0
12 0 0
15 13 15
0 0 0
3 15 7
0 0 0
0 7 0
0 1 0
0 10 7
0 15 7
0 0 0
15 0 15
0 0 0
3 7 0
0 9 0
