P3
4 4 
 15
1 0 0
0 0 0
0 0 0
15 0 15
0 0 0
0 15 7
0 0 0
0 13 2
0 0 0
0 0 1
0 15 14
0 0 0
15 0 12
12 0 0
0 0 0
0 0 8
