P3
4 4 
 15
0 0 0
0 0 0
0 1 0
15 3 15
10 0 0
0 15 7
0 0 0
0 0 0
0 0 0
0 2 4
0 15 7
0 0 3
15 14 15
0 0 0
0 0 0
4 13 0
