P3
4 4 
 15
0 0 0
5 0 11
0 0 0
15 0 15
0 0 11
0 15 7
0 9 0
0 0 13
0 2 0
11 0 0
0 15 1
0 0 0
15 0 15
0 0 0
0 0 0
0 0 0
