P3
4 4 
 15
0 0 0
0 0 0
0 0 0
15 0 15
0 0 11
0 15 8
0 0 13
14 0 0
0 0 0
0 0 0
0 15 7
0 0 3
7 0 15
0 0 0
8 10 0
0 12 0
