P3
4 4 
 15
0 0 5
1 0 0
0 0 14
15 0 15
0 0 0
0 15 7
0 0 7
0 0 0
9 0 0
0 0 0
8 13 7
0 0 0
14 0 5
8 0 0
0 0 0
0 0 0
