P3
4 4 
 15
0 0 0
0 0 4
8 6 0
15 0 15
0 7 0
0 15 7
0 7 0
0 0 0
0 0 0
0 0 0
0 15 7
2 0 0
15 12 11
0 8 0
0 0 0
0 0 0
