P3
4 4 
 15
0 0 0
0 3 0
0 14 10
15 0 15
14 12 0
9 15 7
0 0 0
0 0 11
0 0 14
0 0 0
9 15 7
0 0 0
15 0 15
0 0 0
0 0 0
0 0 0
