P3
4 4 
 15
0 0 0
0 0 0
0 0 0
8 12 15
0 0 0
0 6 7
5 0 0
0 0 3
0 0 0
0 0 0
2 15 3
0 0 0
15 0 15
1 0 0
0 0 0
0 3 0
