P3
4 4 
 15
0 0 0
0 0 0
0 0 13
1 0 15
0 0 0
0 15 7
0 0 0
0 0 7
0 0 0
2 0 0
0 15 7
9 0 0
15 0 15
11 0 13
0 0 0
0 10 9
