P3
4 4 
 15
13 0 12
0 5 0
0 0 0
15 7 15
0 6 0
0 10 7
0 0 0
0 0 0
0 0 10
0 0 0
8 15 7
0 12 0
15 0 15
0 0 0
0 6 0
0 0 0
