P3
4 4 
 15
0 0 0
11 0 0
0 0 0
9 0 15
7 0 0
0 1 7
11 0 0
0 0 11
0 0 0
0 0 0
0 15 7
3 0 0
14 0 15
0 0 0
0 0 0
0 0 0
