P3
4 4 
 15
0 0 0
2 9 0
0 0 0
15 0 15
8 0 0
0 7 7
0 0 0
0 0 0
0 0 0
0 0 0
0 6 8
11 0 0
15 0 15
0 0 0
0 0 4
0 7 0
