P3
4 4 
 15
0 0 0
14 0 0
0 0 0
15 14 15
0 0 0
0 15 7
8 0 0
0 14 1
0 10 0
0 0 0
0 14 7
0 0 0
15 0 15
2 0 0
0 0 2
0 0 0
