P3
4 4 
 15
0 0 0
0 0 0
0 3 14
15 0 4
12 0 0
0 15 7
0 1 0
0 0 0
0 0 0
0 0 0
0 15 7
0 5 0
15 0 15
10 0 0
0 11 5
0 3 0
