P3
4 4 
 15
0 0 2
0 0 0
0 0 6
15 0 15
0 0 0
11 3 7
0 0 0
0 3 14
0 0 0
0 0 0
0 15 7
0 0 0
15 0 15
0 14 13
0 0 0
0 0 0
