P3
4 4 
 15
0 0 0
0 0 0
0 0 3
15 0 15
0 0 0
4 1 7
0 0 4
0 0 0
0 0 0
7 4 0
0 10 7
0 13 0
15 0 15
0 0 5
0 0 0
0 0 0
