P3
4 4 
 15
0 0 0
14 0 0
0 0 0
15 0 2
0 0 7
0 15 7
0 0 5
0 7 8
0 0 0
0 10 0
0 12 7
0 0 0
15 4 6
0 0 0
0 0 0
0 0 0
