P3
4 4 
 15
14 0 12
0 0 0
0 0 0
15 0 15
0 4 5
0 7 7
0 0 0
0 0 3
0 0 14
3 0 0
0 15 7
0 11 0
15 0 0
0 0 0
0 0 0
0 0 0
