P3
4 4 
 15
0 0 0
0 5 0
14 13 0
15 0 15
0 0 0
0 15 7
0 0 7
0 0 0
0 0 0
0 0 0
0 15 9
0 3 0
15 0 15
0 0 0
0 5 0
0 0 12
