P3
4 4 
 15
12 0 0
0 7 0
0 0 0
15 0 3
0 0 0
0 15 7
11 1 0
0 0 9
0 0 0
0 0 0
0 15 7
0 13 0
15 0 15
0 0 1
0 0 0
0 0 0
