P3
4 4 
 15
0 0 0
0 0 0
0 0 0
15 0 12
0 11 0
1 15 7
0 0 4
12 0 0
0 0 0
0 0 4
0 15 7
12 0 0
15 0 15
14 0 0
5 0 0
0 8 0
