P3
4 4 
 15
0 0 0
0 0 0
0 0 0
15 5 15
0 0 0
0 15 7
1 0 0
0 0 0
0 11 0
13 0 0
0 15 7
0 0 0
15 0 15
0 0 6
10 0 3
2 0 0
