P3
4 4 
 15
0 0 0
0 0 8
0 0 0
15 8 7
0 0 6
0 15 7
0 3 0
0 0 0
0 0 5
2 0 0
0 15 7
0 0 8
15 0 15
0 0 0
0 0 0
6 0 0
