P3
4 4 
 15
0 9 0
0 0 0
0 0 0
0 0 15
0 2 0
0 15 7
0 0 0
0 2 0
0 0 0
0 0 0
0 15 14
0 0 0
15 0 6
0 8 0
0 0 0
9 0 3
