P3
4 4 
 15
0 0 0
4 0 0
0 0 0
15 0 15
0 0 0
0 15 7
0 0 0
0 9 0
0 0 6
0 0 0
10 15 7
0 0 0
15 8 15
0 0 0
0 4 0
6 0 13
