P3
4 4 
 15
0 0 0
0 1 3
1 0 0
15 0 15
12 3 0
0 15 7
0 0 0
0 0 0
0 0 0
0 13 0
0 15 7
0 0 0
15 10 6
0 12 0
0 0 0
0 0 0
