P3
4 4 
 15
0 0 0
0 0 8
0 0 0
15 0 15
0 0 0
0 15 7
0 0 0
0 0 0
0 0 0
0 0 0
11 15 7
1 0 0
15 0 0
0 0 1
0 9 4
0 0 11
