P3
4 4 
 15
0 0 3
7 0 0
0 0 0
15 12 15
5 0 0
0 15 7
1 0 0
0 0 0
0 6 0
13 0 0
0 15 7
0 0 0
15 0 1
0 0 0
0 0 0
0 0 0
