P3
4 4 
 15
0 0 8
3 0 0
0 0 0
15 0 15
0 13 0
14 15 7
0 0 0
0 0 0
0 0 11
0 0 0
0 15 7
0 0 0
11 11 15
1 0 0
0 0 0
0 13 0
