P3
4 4 
 15
0 0 0
11 0 0
14 12 0
15 0 15
0 0 0
0 8 7
0 0 0
0 0 0
0 0 0
0 0 0
11 15 9
0 0 0
15 14 15
9 0 0
0 0 0
0 0 0
