P3
4 4 
 15
0 0 0
0 0 0
0 0 0
15 0 15
12 0 13
0 12 7
0 0 0
0 0 0
5 0 0
0 0 0
0 10 7
13 0 0
15 0 15
8 0 0
0 0 3
0 0 0
