P3
4 4 
 15
0 0 0
0 14 0
0 0 0
15 0 11
0 2 0
0 15 2
0 0 0
0 0 12
0 0 0
0 0 0
6 15 7
0 0 0
15 0 15
0 13 0
0 0 6
3 0 0
