P3
4 4 
 15
0 6 8
0 0 0
0 0 0
15 7 15
0 12 0
0 15 6
0 0 0
0 0 0
0 0 0
4 0 0
0 15 7
6 0 0
9 0 15
0 0 0
0 0 0
0 7 0
