P3
4 4 
 15
0 0 0
0 0 0
0 0 0
15 0 15
0 8 0
7 15 7
4 0 11
0 0 0
0 0 1
0 7 0
0 15 7
0 12 3
15 0 15
0 2 0
6 0 0
0 0 0
