P3
4 4 
 15
0 0 0
0 0 0
12 4 4
15 0 15
0 2 0
0 15 7
0 0 0
0 0 0
0 6 0
0 12 0
0 15 7
0 0 0
15 0 9
0 7 0
0 0 0
0 2 0
