P3
4 4 
 15
0 0 0
2 7 7
0 0 0
15 0 15
0 0 0
14 6 7
0 0 0
0 0 0
0 0 0
0 0 0
0 15 7
0 0 0
15 0 13
0 0 0
0 0 0
14 0 6
