P3
4 4 
 15
0 0 0
0 0 0
0 0 0
15 0 15
0 0 0
5 15 10
0 0 0
0 5 0
0 0 0
0 0 0
0 15 7
0 0 0
15 3 15
0 10 0
0 12 0
2 0 0
