P3
4 4 
 15
0 9 0
12 0 0
0 0 0
12 2 15
0 0 0
6 15 7
0 0 0
0 0 0
0 0 0
0 2 0
0 15 7
0 0 8
15 0 15
0 0 0
0 0 0
0 7 0
