P3
4 4 
 15
0 0 0
0 10 0
0 0 0
15 0 15
1 0 0
13 15 12
0 8 0
0 0 0
8 0 0
0 0 0
9 15 7
0 0 0
15 0 0
0 0 0
14 0 0
0 0 0
