P3
4 4 
 15
0 0 0
0 0 0
0 0 0
15 0 15
0 0 0
13 15 7
6 0 0
0 0 0
0 8 0
0 0 0
2 11 7
11 0 0
15 0 15
0 0 0
0 0 0
5 0 0
