P3
4 4 
 15
2 0 0
14 0 13
0 0 0
15 0 15
0 5 0
0 0 7
1 0 0
0 0 0
0 0 0
0 0 0
0 15 7
0 0 0
15 0 3
0 7 0
0 0 0
14 0 7
