P3
4 4 
 15
0 14 0
0 1 0
0 0 0
15 2 15
0 0 0
0 14 7
0 0 0
0 0 0
0 0 0
0 0 0
0 15 4
4 0 13
15 0 15
0 0 0
13 0 0
3 0 0
