P3
4 4 
 15
0 0 14
0 11 0
0 0 0
15 0 15
0 0 1
0 3 7
12 3 0
0 0 0
0 0 0
0 0 0
0 5 7
0 0 0
15 0 15
0 0 0
0 0 0
0 0 0
