P3
4 4 
 15
0 0 0
13 0 0
0 0 12
15 0 15
0 1 6
0 15 7
0 0 0
0 0 0
0 0 0
0 0 0
0 15 7
3 0 2
15 0 15
0 0 0
10 0 0
0 5 0
