P3
4 4 
 15
0 3 5
12 0 0
0 0 0
15 0 15
9 0 0
5 15 7
0 0 0
0 0 0
0 10 0
0 0 0
0 15 7
0 0 0
12 0 15
0 0 12
0 0 0
0 0 0
