P3
4 4 
 15
0 0 0
7 0 12
0 0 0
15 0 15
0 0 0
0 12 7
0 12 4
0 0 0
0 0 12
0 0 9
0 15 7
0 0 0
15 0 15
0 0 14
0 0 0
0 0 0
