P3
4 4 
 15
0 0 0
0 0 0
0 0 0
15 0 15
0 0 0
0 7 7
0 0 14
0 0 0
13 0 0
0 13 0
0 15 7
2 9 0
15 0 5
0 0 4
11 0 0
0 6 0
