P3
4 4 
 15
0 0 0
0 0 8
0 0 0
2 4 15
0 0 0
0 15 7
10 0 0
0 0 0
0 0 0
0 0 0
0 15 7
8 0 0
15 0 9
0 0 0
0 0 10
0 0 0
