P3
4 4 
 15
3 0 0
0 0 0
0 0 0
3 0 15
0 7 0
9 15 7
13 0 0
0 0 0
6 0 0
0 0 0
7 15 7
0 0 0
15 0 15
0 5 0
0 0 0
0 0 0
