P3
4 4 
 15
0 0 0
0 7 0
0 0 0
15 0 15
0 0 0
0 15 14
0 0 0
0 0 11
0 0 0
0 0 0
5 15 7
0 0 0
15 0 8
0 0 0
0 0 0
0 8 1
