P3
4 4 
 15
0 0 0
0 7 6
3 0 0
3 0 15
0 0 0
0 15 0
0 0 0
5 0 0
0 0 0
0 0 0
0 15 14
0 0 0
15 0 15
0 0 0
2 8 1
0 0 0
