P3
4 4 
 15
0 1 6
7 0 0
0 14 0
15 6 15
0 0 0
0 6 6
0 0 0
0 0 0
0 0 0
0 0 0
0 15 7
0 0 0
15 0 15
0 0 0
0 6 0
0 0 0
