P3
4 4 
 15
0 0 0
0 0 0
0 14 0
11 0 14
0 0 0
0 15 7
0 0 0
3 0 0
12 0 0
0 0 0
0 15 7
0 0 0
15 0 10
0 0 0
8 7 0
0 0 0
