P3
4 4 
 15
0 0 0
0 11 0
0 0 0
15 3 1
0 0 0
0 15 7
0 0 0
0 0 0
0 0 0
0 9 0
0 15 7
12 10 0
15 0 15
0 0 0
0 0 0
0 12 0
