P3
4 4 
 15
0 0 0
0 0 4
0 0 0
15 0 15
7 0 0
0 15 7
6 0 6
0 0 0
0 0 12
0 0 0
0 4 7
0 13 0
15 0 15
0 0 0
0 0 0
0 0 0
