P3
4 4 
 15
0 0 0
0 0 7
0 0 0
10 0 15
0 0 0
6 15 7
0 0 0
0 0 0
0 0 13
0 0 0
0 15 0
0 0 0
6 9 15
0 12 0
7 0 0
0 0 0
