P3
4 4 
 15
0 0 10
0 0 0
0 0 14
15 0 15
0 9 0
5 15 7
0 9 0
0 0 0
1 4 0
0 0 0
0 15 7
6 0 0
4 0 15
0 0 0
0 0 0
0 13 0
