P3
4 4 
 15
0 0 0
9 0 0
0 0 9
15 5 15
0 0 0
0 15 3
0 0 0
0 1 0
0 0 0
0 0 12
0 15 7
0 0 0
15 0 15
0 0 0
0 0 8
0 0 5
