P3
4 4 
 15
0 10 0
7 6 0
0 0 0
15 5 15
0 0 0
5 15 7
11 0 0
0 9 0
0 4 0
0 0 0
0 15 7
0 0 0
15 0 15
0 0 5
0 0 0
9 0 0
