P3
4 4 
 15
0 0 0
0 0 0
0 0 0
15 3 15
0 0 0
0 15 7
0 0 0
0 0 0
6 10 0
0 0 0
11 15 7
3 0 14
15 0 10
6 13 0
0 0 0
0 0 0
