P3
4 4 
 15
0 0 0
11 0 0
0 0 10
15 0 15
0 0 14
0 15 7
0 0 0
0 0 0
0 0 0
0 0 0
0 15 7
0 0 8
15 0 6
0 6 0
0 0 0
0 0 7
