P3
4 4 
 15
6 0 0
13 0 0
0 0 0
15 0 15
0 0 0
0 15 7
0 0 7
11 0 0
0 1 0
0 0 0
0 8 7
0 0 13
15 0 15
9 0 14
0 0 0
0 0 0
