P3
4 4 
 15
0 0 0
0 0 0
6 0 0
15 0 15
1 0 0
0 15 7
0 0 0
10 0 0
0 0 0
0 0 0
0 4 7
0 13 0
15 0 1
8 0 6
0 0 0
0 9 0
