P3
4 4 
 15
10 0 0
3 0 0
0 0 0
15 0 15
0 14 0
0 15 14
0 0 0
0 0 0
0 7 5
0 0 0
0 15 7
0 0 7
15 0 1
0 0 0
0 0 0
0 11 0
