P3
4 4 
 15
0 0 0
0 0 0
0 0 0
3 0 15
0 0 0
0 15 7
0 0 6
0 1 3
0 0 0
0 0 0
0 4 7
0 10 0
15 0 15
0 0 0
0 0 0
0 0 0
