P3
4 4 
 15
0 0 3
6 12 0
0 0 0
15 0 12
0 0 0
11 15 7
2 0 0
0 0 0
0 0 0
0 0 0
0 2 7
0 0 0
15 0 0
0 0 0
0 0 10
0 0 0
