P3
4 4 
 15
0 0 0
0 0 0
14 2 0
4 0 15
0 0 0
0 15 7
0 9 0
0 0 0
0 0 0
2 0 0
0 15 7
0 0 0
15 10 13
0 0 0
0 0 0
0 0 1
