P3
4 4 
 15
0 12 11
0 0 0
0 0 0
15 0 15
0 0 0
0 15 7
8 0 5
0 0 14
0 0 0
0 0 2
0 15 7
6 0 0
15 0 15
0 0 5
0 0 0
0 0 0
