P3
4 4 
 15
7 0 0
0 0 0
0 10 0
15 0 15
0 0 0
11 15 7
0 0 0
0 0 0
0 2 0
0 0 0
14 9 7
0 0 0
15 0 15
0 0 0
14 7 0
0 0 0
