P3
4 4 
 15
0 5 13
0 0 6
0 0 12
15 0 15
0 0 0
0 10 7
0 0 11
0 14 0
0 12 0
0 0 0
0 15 5
0 0 0
15 0 15
0 0 0
0 0 12
0 0 0
