P3
4 4 
 15
0 0 0
0 0 0
0 0 0
15 0 1
7 0 0
10 15 13
0 0 0
13 0 12
6 0 8
0 0 0
6 15 7
0 0 0
15 0 15
0 0 0
0 0 0
0 0 12
