P3
4 4 
 15
0 0 0
0 11 0
7 0 0
15 0 13
0 0 0
11 12 7
0 0 0
14 0 0
0 13 0
0 0 0
0 15 7
0 0 0
15 1 12
0 0 0
0 0 0
0 9 0
