P3
4 4 
 15
1 0 0
0 3 0
0 0 0
15 0 15
0 0 0
0 15 7
1 0 0
0 7 0
0 0 0
0 0 0
0 15 12
0 0 0
4 0 15
0 0 13
6 0 0
0 0 0
