P3
4 4 
 15
2 0 0
0 0 0
0 0 0
15 0 15
0 0 0
12 15 7
0 0 0
0 0 0
0 0 0
0 0 0
8 14 7
0 0 0
15 0 15
3 4 0
13 0 0
0 11 0
