P3
4 4 
 15
0 8 0
0 0 0
0 0 0
15 0 1
0 5 0
0 15 7
0 0 9
7 0 0
0 0 0
0 1 0
0 15 7
0 0 0
15 0 12
0 0 0
1 11 0
0 0 0
