P3
4 4 
 15
4 0 0
0 0 0
0 0 0
15 0 15
10 0 0
0 15 6
0 0 0
4 0 0
0 0 0
0 3 0
0 15 7
0 0 0
15 2 15
11 10 0
0 0 0
0 0 2
