P3
4 4 
 15
0 0 0
0 0 0
0 7 9
15 0 15
0 0 0
0 15 7
5 0 0
0 0 0
0 6 1
0 0 7
0 15 7
0 0 0
15 0 7
0 0 0
0 0 0
0 0 0
