P3
4 4 
 15
0 0 0
0 0 0
0 0 10
14 9 10
0 0 0
0 3 7
0 0 0
0 9 0
0 0 0
0 0 0
0 15 7
0 0 0
15 0 15
0 14 0
0 0 0
0 0 0
