P3
4 4 
 15
0 0 0
0 0 0
0 0 0
15 0 15
0 0 13
0 15 7
0 0 0
0 0 2
0 0 0
0 9 14
0 10 7
0 0 0
13 0 15
0 11 0
1 0 0
13 0 10
