P3
4 4 
 15
0 0 0
0 0 0
0 12 0
15 0 15
0 8 0
0 3 7
0 0 0
0 0 0
0 0 0
0 0 0
0 15 7
1 11 0
0 3 15
1 0 0
0 14 0
0 0 0
