P3
4 4 
 15
0 0 0
5 0 0
0 0 0
15 0 15
0 0 0
1 15 6
3 0 0
0 0 5
0 0 0
0 7 12
0 15 7
0 0 0
15 11 15
0 0 0
0 0 0
0 0 0
