P3
4 4 
 15
0 0 5
0 0 4
6 0 0
15 10 15
0 0 5
0 15 7
0 0 2
0 0 0
0 0 0
0 0 0
0 15 7
0 0 0
7 0 15
0 4 0
0 0 0
2 0 12
