P3
4 4 
 15
0 12 0
0 0 0
0 0 0
2 0 15
0 0 0
0 15 7
0 0 0
0 5 0
0 0 11
0 0 0
10 15 7
0 9 0
15 0 15
0 5 0
0 0 0
0 0 3
