P3
4 4 
 15
0 0 0
0 0 0
0 0 0
15 5 15
0 6 0
0 15 7
0 0 0
0 14 0
0 0 0
0 10 0
0 3 7
0 6 0
15 3 15
12 0 0
7 0 0
0 0 0
