P3
4 4 
 15
0 0 0
0 0 0
0 0 0
15 0 15
5 14 0
0 9 7
0 0 8
0 0 0
0 0 0
0 0 0
12 15 7
0 6 0
15 0 15
0 0 0
0 0 0
0 9 0
