P3
4 4 
 15
0 0 0
0 0 0
0 0 0
15 0 15
12 7 0
0 2 7
0 6 0
12 2 0
0 0 6
0 0 0
0 15 7
0 0 0
15 0 15
0 0 0
0 0 6
0 1 0
