P3
4 4 
 15
0 0 0
0 0 0
0 0 0
15 0 15
0 0 0
0 15 7
0 0 0
0 4 10
0 0 0
0 0 0
0 6 0
0 0 3
15 6 14
0 0 0
0 0 0
0 2 0
