P3
4 4 
 15
0 0 0
0 0 9
0 0 0
15 0 15
0 0 0
0 1 7
14 0 10
0 0 12
12 0 0
0 0 0
0 15 7
0 0 0
15 0 15
0 0 14
5 2 0
0 0 0
