P3
4 4 
 15
0 0 0
0 0 13
0 0 0
15 0 15
0 0 0
0 15 7
0 0 9
3 0 0
0 0 6
0 0 0
13 15 7
10 0 0
15 0 5
1 0 0
0 0 0
1 10 0
