P3
4 4 
 15
0 0 8
0 0 3
2 0 0
14 0 15
0 0 0
0 15 7
0 3 0
0 14 0
0 0 0
0 11 0
0 15 7
13 0 0
12 0 15
0 10 0
0 0 0
0 0 0
