P3
4 4 
 15
0 0 0
0 0 0
0 0 14
15 0 15
0 0 0
0 15 7
0 0 0
0 0 12
13 0 0
0 0 7
0 15 7
0 0 6
1 0 15
0 0 0
13 0 0
6 0 0
