P3
4 4 
 15
0 0 0
0 0 0
3 0 0
15 0 15
0 0 1
0 14 7
0 0 0
0 5 0
0 0 0
0 0 0
0 15 7
0 0 1
6 0 0
9 0 8
0 0 0
0 0 0
