P3
4 4 
 15
0 3 0
12 0 0
7 7 0
15 0 10
0 0 4
1 15 7
0 0 0
0 0 0
0 0 9
0 0 0
0 15 7
0 0 0
15 0 15
0 0 0
0 0 0
0 0 9
