P3
4 4 
 15
0 0 0
4 0 4
0 0 0
8 0 15
0 0 0
0 15 7
0 0 3
0 0 0
0 0 0
0 0 0
6 4 7
0 0 0
15 0 15
2 0 0
10 0 0
0 0 0
