P3
4 4 
 15
0 0 0
0 0 11
0 0 0
15 0 15
0 0 4
0 15 7
0 0 0
0 0 0
0 12 0
0 13 0
2 14 7
0 0 0
13 0 15
0 0 7
0 0 0
0 13 7
