P3
4 4 
 15
0 0 0
7 0 0
0 0 11
15 0 15
0 0 0
0 15 7
0 0 0
5 0 13
0 0 0
0 2 0
0 15 7
0 0 0
3 8 15
10 0 0
0 0 0
5 0 0
