P3
4 4 
 15
0 0 0
4 0 0
0 0 0
15 0 5
0 0 0
0 15 7
0 0 0
0 0 0
0 0 0
0 0 0
0 15 7
0 0 0
13 13 15
0 7 0
0 14 0
14 0 1
