P3
4 4 
 15
5 0 0
0 12 5
0 0 0
15 0 15
0 0 0
0 15 7
0 0 0
0 0 0
0 0 5
2 0 0
0 15 7
0 0 0
15 0 15
0 5 0
0 0 0
12 0 0
