P3
4 4 
 15
0 0 0
0 0 8
0 0 0
15 6 15
0 0 2
0 15 7
0 0 0
0 0 0
0 0 3
0 0 4
0 5 10
0 0 0
15 0 4
0 0 0
0 3 0
0 0 0
