P3
4 4 
 15
0 9 8
0 0 0
0 0 0
15 7 8
0 0 0
0 15 7
0 0 0
0 0 0
7 0 0
0 2 3
0 15 7
0 0 14
15 13 15
0 0 0
0 0 0
0 0 0
