P3
4 4 
 15
0 0 0
0 0 0
4 11 0
6 0 9
0 10 0
0 15 7
0 0 0
0 0 0
0 0 0
0 0 0
0 15 7
0 0 0
15 0 4
14 0 0
14 0 0
0 0 0
