P3
4 4 
 15
0 0 0
0 0 0
10 9 0
8 0 15
0 14 0
0 15 7
0 12 10
0 0 0
0 0 0
0 4 0
0 12 7
0 0 0
0 0 15
0 0 0
0 0 0
5 0 0
