P3
4 4 
 15
0 0 8
0 10 0
0 0 0
15 11 15
0 0 0
0 15 7
0 0 5
0 0 0
0 14 0
0 0 0
0 15 7
0 0 0
15 0 15
0 0 0
0 0 5
14 0 0
