P3
4 4 
 15
8 0 0
0 0 0
0 0 4
15 0 15
0 0 0
0 12 7
0 0 0
0 0 0
0 0 0
0 0 11
10 15 7
0 9 0
5 0 15
0 0 0
0 0 0
0 0 2
