P3
4 4 
 15
0 0 0
0 12 0
0 0 0
15 0 15
0 0 0
0 10 7
12 0 0
0 0 0
0 0 0
0 0 0
2 7 9
0 0 0
1 0 15
0 0 0
0 0 0
0 0 0
