P3
4 4 
 15
0 4 0
0 8 0
0 0 0
15 0 15
0 0 0
0 15 7
0 3 0
0 0 0
0 0 0
0 0 0
0 15 7
0 1 0
15 14 9
0 0 0
0 0 13
0 0 10
