P3
4 4 
 15
0 0 3
0 11 0
8 11 0
2 0 15
0 0 0
0 15 7
0 0 0
0 0 2
0 0 0
0 0 0
0 15 7
13 0 12
15 0 15
0 0 0
0 0 0
0 0 0
