P3
20 20 
 255
89 77 87
94 69 73
98 73 79
99 82 88
93 84 79
92 79 99
102 90 100
125 123 108
80 46 37
98 61 52
102 59 52
104 58 43
92 61 56
107 93 80
105 91 64
117 77 85
110 56 56
104 61 54
103 65 46
110 71 64
102 97 75
107 94 85
91 90 62
89 95 67
80 77 58
118 111 69
114 104 79
93 86 60
72 48 36
91 57 56
92 56 40
96 58 45
93 57 45
99 88 70
91 70 67
115 78 60
141 90 73
123 78 81
116 67 52
123 80 64
88 47 43
103 79 79
90 58 43
88 52 38
84 42 52
72 33 26
62 34 31
88 50 49
68 37 45
74 34 45
75 47 44
63 39 37
48 27 34
68 48 59
143 136 128
116 71 50
125 74 55
128 83 62
119 75 76
129 77 89
86 41 44
108 99 90
103 65 56
99 57 58
111 82 74
92 58 56
84 66 56
78 37 31
102 98 99
111 114 105
90 88 93
111 108 119
116 113 132
77 88 82
107 90 64
112 84 83
121 110 116
127 111 114
127 118 109
132 128 119
62 46 59
109 96 90
89 53 41
77 42 48
84 51 46
76 35 31
71 46 52
74 47 56
68 57 53
101 83 69
93 76 50
129 108 77
123 106 80
110 85 80
104 92 94
116 85 82
122 99 91
112 107 85
121 89 66
102 84 64
121 122 114
109 101 90
107 117 109
116 129 122
105 98 106
109 103 103
100 101 103
134 138 137
73 61 49
84 58 57
101 73 62
87 54 49
100 54 57
125 92 83
141 98 92
137 98 83
130 85 88
129 93 77
104 60 49
90 40 31
86 46 34
88 47 43
109 80 76
95 65 37
97 56 34
101 70 49
72 53 38
118 104 95
83 64 47
105 74 45
100 70 60
89 60 62
135 98 89
141 101 102
134 108 111
136 95 75
138 99 70
128 91 82
136 79 70
96 61 65
86 49 40
94 65 67
113 67 54
89 44 47
84 52 53
90 50 51
89 58 66
117 100 90
62 42 44
96 70 79
109 76 85
99 63 67
103 66 60
110 76 66
108 71 65
101 69 74
109 60 53
89 49 50
108 65 59
108 70 67
74 40 41
85 45 46
99 57 45
85 42 49
79 48 54
90 55 49
82 42 51
111 104 96
91 75 75
115 119 105
114 112 89
114 102 86
105 99 83
114 116 115
107 120 113
133 128 122
107 107 107
119 130 134
128 129 149
121 109 113
89 80 83
92 81 79
99 80 73
91 77 77
84 70 61
90 70 61
79 68 76
139 142 121
84 51 44
67 41 28
80 45 43
85 48 32
89 47 31
89 65 53
128 113 110
129 94 75
124 96 75
151 112 81
138 111 81
147 119 115
88 55 38
109 94 75
82 81 53
68 73 51
78 73 67
87 71 56
101 95 63
67 63 36
63 43 54
81 70 64
73 58 63
81 72 75
86 57 62
88 78 69
146 132 129
140 99 93
143 112 109
149 116 99
139 115 103
142 106 118
78 37 51
96 66 58
118 81 75
84 35 30
90 52 51
92 64 61
79 45 33
85 58 63
48 33 28
63 54 49
56 42 31
88 78 69
102 63 66
83 62 61
138 111 92
142 97 74
141 92 88
142 106 94
141 92 77
160 107 99
75 38 30
102 74 70
111 82 76
73 30 24
93 58 56
94 61 52
102 56 32
102 58 33
78 77 73
90 88 89
97 79 77
74 64 65
71 54 64
86 87 91
137 119 107
145 111 99
148 123 118
131 104 95
156 118 107
125 98 107
93 61 74
87 76 84
131 128 119
88 77 85
91 68 76
93 65 62
88 65 73
89 66 58
114 86 82
93 80 61
83 73 61
88 81 73
93 77 78
115 114 93
133 116 98
111 96 77
108 94 68
119 108 78
102 94 73
138 139 131
95 76 61
84 75 58
96 87 44
100 90 63
91 79 67
85 74 46
85 78 62
100 87 81
68 43 36
75 34 32
98 52 55
93 47 47
88 52 56
106 89 81
105 75 73
101 62 57
92 58 59
90 66 64
96 68 65
116 84 73
77 47 47
82 59 45
74 47 40
84 43 49
78 47 44
77 47 49
75 37 50
68 49 43
95 79 80
91 56 62
78 59 42
98 70 67
90 56 70
117 94 100
139 115 105
101 61 69
106 75 70
106 75 72
104 80 68
115 74 52
79 50 42
88 56 45
100 58 44
84 60 58
75 49 52
74 56 46
76 51 54
70 53 61
84 46 59
89 49 50
86 49 41
96 57 50
96 56 48
128 97 95
148 94 92
126 81 88
118 73 78
104 64 62
105 72 91
88 48 49
60 54 58
74 57 63
73 44 48
74 47 52
76 47 51
69 43 44
65 35 43
67 55 57
111 117 115
86 88 85
73 69 70
92 81 85
97 84 78
108 93 90
103 97 81
119 115 106
129 120 113
104 99 80
114 111 94
132 122 123
99 95 86
107 103 100
109 120 116
108 99 94
100 89 83
98 98 96
95 98 91
101 103 90
91 79 55
103 67 55
86 76 64
88 78 66
66 57 40
130 129 127
106 103 84
105 65 40
111 72 43
108 68 56
108 76 55
107 77 66
92 64 50
88 56 43
120 118 97
82 46 20
103 63 38
93 65 54
78 60 46
76 49 38
75 47 43
90 58 61
85 64 63
94 52 62
83 48 55
126 106 107
110 83 64
111 60 59
116 60 61
122 89 84
101 61 61
111 86 90
