P3
20 20 
 255
149 132 104
159 136 105
161 132 100
156 127 95
154 130 96
151 127 93
157 131 96
155 129 94
153 130 98
153 134 102
154 133 102
155 132 100
157 132 101
158 133 102
159 134 104
162 136 109
161 135 100
158 132 97
158 134 100
155 134 103
154 135 102
151 128 97
150 125 95
155 129 102
152 129 98
154 131 99
160 135 104
152 129 97
151 130 101
152 131 102
154 133 104
157 132 102
158 133 103
157 134 103
160 137 106
162 139 108
160 136 102
161 136 105
154 131 100
148 127 96
150 130 93
147 127 94
146 125 96
149 128 101
148 127 98
149 126 95
151 128 96
148 127 96
147 126 97
149 128 99
151 127 99
154 131 100
157 133 105
153 132 103
155 134 103
154 134 101
159 136 104
154 131 100
149 128 97
152 131 100
148 125 91
149 126 92
155 132 100
152 131 100
154 131 100
152 129 97
151 126 95
150 127 95
157 134 102
154 133 102
158 135 103
153 130 99
159 135 107
161 137 109
158 135 104
159 136 102
158 138 105
156 132 98
155 131 97
156 133 99
143 120 89
143 120 86
148 125 91
151 128 94
153 130 96
160 136 102
155 129 96
155 129 94
158 135 101
160 137 103
159 136 102
157 132 101
162 137 107
163 138 108
165 140 109
163 139 105
164 141 107
164 138 101
164 136 99
159 135 101
138 112 85
135 112 81
138 115 83
136 116 83
142 119 87
147 120 90
144 117 87
145 120 89
152 129 97
154 131 97
159 135 101
161 137 103
161 136 105
155 132 100
156 133 101
160 136 102
163 139 103
166 140 105
166 140 105
154 129 98
140 115 85
133 109 83
133 111 87
133 112 85
136 112 84
135 109 82
137 111 84
136 112 86
137 116 89
144 121 90
148 123 92
156 131 100
154 131 100
141 120 89
145 125 92
153 130 96
159 135 101
158 131 101
160 133 104
161 134 104
154 127 97
141 117 91
135 113 90
137 115 92
137 113 89
135 111 85
135 113 89
133 111 88
134 112 88
138 117 90
142 118 90
143 122 93
139 118 91
129 108 81
130 106 78
136 113 82
139 114 83
146 119 90
162 133 103
167 138 104
157 131 98
158 131 102
151 125 100
148 122 99
146 120 97
142 118 94
141 119 95
140 118 94
145 123 99
148 127 100
149 128 101
146 126 101
141 119 95
142 118 94
142 114 92
144 116 92
142 119 88
154 125 93
171 138 103
172 143 103
163 137 102
167 141 108
166 136 108
157 130 103
158 131 104
154 128 101
153 127 100
152 126 99
155 131 103
154 133 104
157 136 109
155 134 105
159 135 107
160 133 106
159 131 109
160 132 111
165 140 109
169 141 104
174 142 103
174 145 103
166 138 99
171 142 108
170 143 113
165 138 109
159 132 103
164 137 107
163 136 107
156 129 100
154 129 99
155 132 101
161 136 105
164 137 107
165 139 104
166 140 107
162 136 109
158 134 110
171 142 108
179 151 114
169 144 104
166 140 103
165 135 97
166 137 105
164 137 108
165 140 110
161 134 104
164 135 103
163 136 106
161 136 105
161 136 105
165 139 106
160 131 99
163 134 100
165 139 102
164 140 104
164 141 109
153 132 103
165 136 102
171 145 110
164 140 106
167 143 109
166 133 100
162 133 101
162 135 105
161 134 104
165 138 108
163 137 104
161 135 102
160 136 102
160 136 102
163 137 102
164 135 101
158 132 99
164 139 108
166 143 111
165 141 107
160 136 100
161 137 103
169 142 112
171 144 114
164 139 108
164 133 104
159 130 98
164 135 103
162 136 103
162 135 105
164 137 107
166 141 110
167 143 109
164 140 104
166 140 105
159 133 100
157 132 102
160 136 108
165 140 110
170 144 111
162 134 97
159 136 104
167 140 110
171 142 112
163 138 107
163 134 104
160 131 97
161 132 98
162 133 101
160 133 103
162 137 107
160 135 104
161 137 103
167 144 110
162 139 107
156 133 102
156 132 104
153 130 99
162 137 106
167 141 106
167 139 100
165 143 106
165 141 107
160 133 103
160 135 105
162 138 104
161 135 100
161 133 96
164 138 105
163 136 107
153 127 100
153 128 98
157 134 102
159 139 106
154 133 104
156 132 106
154 130 102
151 126 95
152 128 92
156 130 93
165 139 102
168 143 103
161 138 104
158 137 108
150 129 100
163 134 100
157 131 104
146 124 100
155 134 105
158 134 100
152 123 91
147 120 91
150 123 93
154 128 93
163 134 100
160 133 104
159 133 106
152 129 98
153 129 95
154 127 97
162 132 106
163 137 110
165 140 109
159 135 97
153 129 93
150 124 97
152 128 102
142 120 96
144 123 94
151 126 95
151 124 94
145 118 89
141 116 86
149 125 91
154 128 95
157 131 98
157 132 102
149 124 93
151 127 93
157 128 96
161 130 99
159 135 107
162 137 106
156 132 98
152 128 92
137 115 91
148 126 102
144 120 94
143 119 91
146 123 92
151 126 96
152 126 99
140 116 88
145 122 91
151 127 93
153 129 95
158 132 99
155 131 97
153 129 95
156 127 95
159 128 97
154 135 103
160 137 106
156 131 100
154 130 96
139 115 89
153 129 103
145 121 95
138 114 88
140 114 89
147 123 97
155 131 103
139 118 89
137 116 87
145 122 91
152 127 96
159 133 100
157 131 96
151 125 92
152 125 96
156 129 102
152 133 100
150 129 98
152 128 100
154 129 99
