P3
4 4 
 15
7 0 0
0 8 0
0 6 0
15 0 15
0 0 0
0 15 7
0 0 0
0 0 0
0 0 0
0 0 0
0 15 7
0 0 0
15 0 15
0 0 0
0 0 0
0 0 0
