P3
4 4 
 15
4 0 0
0 0 0
0 0 0
15 0 15
0 0 0
0 15 7
0 0 0
0 0 0
0 0 0
0 11 0
0 15 7
1 0 0
15 0 4
0 0 6
0 0 6
0 0 0
