P3
4 4 
 15
5 0 0
0 0 0
0 0 0
7 0 15
0 0 6
0 15 7
0 6 0
1 5 0
0 0 0
0 1 0
0 15 7
0 0 0
15 3 15
0 0 0
0 0 0
0 0 0
