P3
4 4 
 15
0 11 0
0 0 0
0 6 0
15 0 15
3 0 4
7 15 7
0 0 0
11 0 0
0 0 0
0 0 0
0 15 7
14 0 1
15 0 15
0 0 0
0 0 0
12 0 0
