P3
4 4 
 15
4 0 0
0 0 11
11 0 0
0 0 14
13 0 0
0 15 7
0 0 0
0 0 0
0 2 0
0 0 0
0 15 7
0 3 0
15 0 15
0 0 0
0 0 0
4 0 0
