P3
4 4 
 15
0 0 0
0 0 0
9 0 0
15 0 15
5 0 0
0 15 7
0 7 0
0 0 0
0 0 0
0 0 0
0 15 7
2 0 0
15 14 15
0 12 0
0 13 14
0 0 9
