P3
4 4 
 15
3 0 13
0 0 0
0 0 0
15 0 15
4 0 0
0 15 7
11 0 10
0 0 0
0 9 0
0 0 0
0 15 7
0 0 0
13 3 15
0 0 0
0 0 0
0 0 0
