P3
4 4 
 15
0 0 2
0 10 0
0 0 0
15 9 15
0 0 0
14 15 7
13 0 7
0 0 0
0 0 0
0 0 0
0 15 7
0 0 0
13 12 15
0 0 0
0 0 0
5 0 0
