P3
4 4 
 15
0 0 0
0 0 0
0 0 0
15 0 15
0 8 0
0 14 7
2 0 7
0 0 0
0 0 0
0 0 0
13 15 7
0 0 0
15 0 15
6 0 0
6 0 4
0 0 4
