P3
4 4 
 15
0 0 1
0 0 0
1 0 0
15 0 15
7 0 0
0 15 7
0 0 0
0 0 0
0 0 1
0 0 14
0 15 7
0 5 8
15 0 15
0 2 0
0 0 0
9 0 0
