P3
4 4 
 15
0 0 0
0 0 0
0 0 0
15 0 15
11 0 0
5 15 7
0 0 0
11 0 0
0 4 0
0 0 0
0 15 7
0 11 0
15 14 15
8 0 1
0 0 0
7 0 0
