P3
4 4 
 15
0 0 0
0 13 0
6 0 0
10 0 15
0 0 0
0 11 7
0 0 0
6 0 0
13 6 0
0 0 0
9 15 7
0 11 0
15 0 10
0 0 0
0 0 0
0 0 0
