P3
4 4 
 15
9 0 0
14 0 0
0 0 0
15 0 15
0 0 0
0 15 7
0 0 0
0 0 0
0 0 4
0 0 0
0 14 7
8 0 0
6 3 15
0 0 0
0 14 0
0 0 0
