P3
4 4 
 15
0 0 9
0 8 0
0 0 0
15 0 15
1 0 0
0 15 7
1 0 9
0 0 0
0 0 0
0 0 0
0 15 7
6 0 0
15 0 15
3 3 0
0 0 0
4 12 0
