P3
4 4 
 15
0 0 0
0 0 0
0 0 0
11 0 15
0 0 0
0 8 7
0 0 0
0 0 0
0 0 0
0 13 1
0 14 7
0 0 0
15 10 15
0 0 0
0 0 7
0 0 0
