P3
4 4 
 15
0 0 7
0 0 0
0 0 0
15 12 15
0 0 0
12 15 7
0 0 0
12 0 0
0 0 6
0 0 0
12 15 7
0 14 0
15 0 15
0 0 11
0 6 0
0 0 0
