P3
4 4 
 15
0 0 0
0 0 0
0 0 1
7 11 7
0 13 0
10 15 7
3 0 0
0 0 0
0 0 0
0 0 6
0 3 7
0 3 0
15 0 15
0 0 0
0 0 0
0 0 0
