P3
4 4 
 15
0 0 0
0 0 0
0 10 11
15 0 15
0 0 0
0 15 7
0 0 13
0 0 5
0 4 0
0 0 0
7 15 7
0 0 0
1 0 15
0 0 0
0 0 0
2 0 0
