P3
4 4 
 15
8 0 0
0 0 0
0 0 0
5 1 15
0 0 0
0 15 7
9 0 0
0 0 0
0 0 0
5 0 10
0 6 7
0 0 0
15 0 15
4 0 0
11 0 0
0 0 0
