P3
4 4 
 15
0 0 0
0 4 4
2 0 0
0 0 15
0 0 0
0 15 7
0 0 0
0 0 0
0 0 0
0 0 0
0 2 7
0 0 0
0 0 6
0 0 0
0 10 12
0 0 0
