P3
4 4 
 15
0 14 0
9 0 0
0 0 0
15 0 7
0 0 0
0 5 7
0 11 2
9 0 0
0 0 0
14 0 0
0 15 7
0 0 0
15 4 15
0 0 13
0 0 0
0 0 0
