P3
4 4 
 15
0 0 0
0 13 0
0 10 0
15 0 15
0 0 0
0 9 7
0 0 10
0 0 0
0 0 0
0 0 10
0 4 11
0 0 0
15 0 15
0 0 0
0 0 0
12 0 0
