P3
4 4 
 15
0 0 0
0 0 3
13 0 0
15 0 12
0 0 0
9 7 7
0 0 0
0 0 3
10 0 0
0 0 0
0 15 7
0 0 2
15 0 13
12 0 0
0 0 0
0 0 0
