P3
4 4 
 15
0 0 0
0 11 0
0 0 0
15 2 10
6 0 0
9 15 7
0 0 14
11 0 0
0 0 10
0 0 0
3 15 7
0 0 0
15 0 15
0 0 0
0 0 0
0 0 0
