P3
4 4 
 15
0 0 0
0 0 0
0 2 0
15 13 15
9 0 0
0 15 4
0 0 0
0 0 10
0 0 0
2 0 0
0 15 7
0 0 0
6 0 8
3 0 0
0 0 0
0 0 0
