P3
4 4 
 15
0 0 0
0 0 0
1 0 12
15 0 15
0 0 0
0 15 7
1 0 0
0 0 0
0 0 0
0 0 0
6 12 8
11 0 0
2 0 6
0 0 0
0 0 0
0 12 0
