P3
4 4 
 15
0 0 0
0 0 0
0 0 0
12 0 15
0 0 0
0 15 7
0 0 0
0 0 0
0 0 10
0 3 0
8 4 7
0 0 0
15 0 8
0 0 11
0 0 0
2 0 0
