P3
4 4 
 15
13 3 0
0 0 0
0 0 0
15 0 15
0 0 0
0 0 7
0 0 0
13 3 0
0 0 0
0 0 0
0 15 13
0 0 0
6 0 15
0 4 0
0 0 0
0 0 14
