P3
4 4 
 15
0 0 0
0 0 0
8 11 0
15 0 15
0 0 0
0 15 7
0 0 0
0 0 0
0 7 0
0 0 0
0 15 7
0 4 8
15 7 15
0 7 0
10 0 0
0 0 0
