P3
4 4 
 15
0 0 0
2 8 6
0 0 0
15 0 15
0 0 7
0 15 9
0 0 0
0 6 0
0 0 0
0 0 0
0 15 7
0 0 0
15 7 15
0 14 0
0 7 0
4 0 0
