P3
4 4 
 15
0 14 0
0 0 0
7 0 0
15 0 15
0 0 0
0 15 7
0 0 0
0 0 0
10 1 0
0 0 0
0 15 7
0 0 0
15 0 15
0 11 0
0 0 0
13 9 0
