P3
4 4 
 15
0 0 0
0 0 0
0 0 0
10 0 15
0 0 5
6 15 7
0 0 0
0 0 0
0 12 0
0 5 0
0 15 7
0 0 0
15 1 15
0 0 0
0 0 0
0 0 0
