P3
4 4 
 15
0 8 0
0 0 4
0 0 0
15 0 15
10 0 0
0 15 7
0 0 0
0 0 2
0 0 0
1 0 13
0 9 7
10 0 0
15 0 0
0 0 0
0 0 8
0 0 0
