P3
4 4 
 15
0 0 9
0 0 0
0 0 0
15 0 15
0 0 0
1 15 7
0 0 0
0 12 0
0 0 7
0 0 0
0 15 7
2 0 6
14 0 4
0 0 0
0 0 0
0 0 2
