P3
4 4 
 15
0 0 0
0 0 0
0 0 0
15 0 15
0 0 0
0 8 7
0 0 0
0 0 0
0 0 0
0 0 9
5 1 5
0 0 0
4 0 9
11 0 0
13 0 0
0 0 0
