P3
4 4 
 15
0 0 0
0 0 0
0 6 0
9 0 15
0 0 0
0 15 7
0 0 9
4 10 0
0 0 0
0 0 0
0 10 7
0 0 5
15 0 15
0 0 12
0 0 0
0 0 0
