P3
4 4 
 15
0 0 0
0 0 1
0 0 0
15 0 15
5 0 0
0 15 2
0 0 0
0 0 0
0 0 3
4 0 0
0 15 7
1 3 0
2 0 15
0 0 0
0 0 0
7 0 0
