P3
4 4 
 15
0 0 0
0 0 0
0 0 0
14 0 15
13 0 0
0 3 7
0 0 0
0 0 3
0 0 0
0 3 0
0 15 8
0 0 0
15 0 14
0 0 9
0 0 0
0 0 0
