P3
4 4 
 15
0 0 0
0 0 0
0 3 0
15 8 15
0 0 0
0 10 7
7 0 5
0 0 0
0 0 0
0 0 0
0 15 7
3 0 1
15 0 15
0 0 2
0 0 0
0 0 0
