P3
4 4 
 15
0 0 0
0 0 0
14 0 0
15 0 15
0 0 0
9 15 7
0 9 0
0 1 0
0 0 0
0 0 0
12 15 7
0 0 0
9 0 15
0 0 7
0 0 0
0 5 0
