P3
4 4 
 15
0 0 0
0 0 0
0 0 0
15 0 13
0 0 0
0 13 7
9 11 0
0 0 0
0 0 0
0 0 0
0 15 7
0 0 3
8 9 15
0 0 0
5 0 8
0 0 0
