P3
4 4 
 15
0 0 14
0 8 0
0 0 0
15 0 15
0 0 0
0 15 5
0 0 0
0 0 0
0 0 12
0 0 0
0 15 7
0 0 0
4 0 15
6 6 0
0 0 0
5 0 0
