P3
4 4 
 15
0 0 0
13 11 0
0 9 0
15 0 15
0 0 12
4 15 6
0 0 0
0 0 13
0 0 0
0 0 0
0 15 7
0 3 0
15 0 15
0 0 0
0 0 0
0 0 0
