P3
4 4 
 15
0 0 0
11 0 0
0 8 3
15 0 15
0 0 0
0 15 2
0 0 0
0 0 0
9 0 0
0 0 0
0 15 7
11 0 0
0 0 15
14 0 0
9 0 0
0 13 0
