P3
4 4 
 15
0 0 0
0 0 0
6 0 0
15 11 15
0 0 0
0 15 7
0 12 0
0 0 0
0 0 0
6 0 0
14 15 7
0 0 1
15 9 0
0 0 0
0 0 0
0 0 0
