P3
4 4 
 15
8 0 7
0 0 0
0 0 0
15 0 10
0 0 9
12 11 7
13 0 0
0 0 0
0 0 0
0 0 0
0 15 7
0 0 0
10 0 15
0 0 0
0 0 11
0 0 0
