P3
4 4 
 15
0 0 0
0 0 0
0 13 0
6 8 15
0 0 0
0 15 7
0 0 0
0 0 0
0 14 0
0 9 1
0 12 7
0 6 0
15 0 12
3 0 0
0 0 0
0 0 0
