P3
4 4 
 15
0 0 0
0 0 0
0 0 0
9 0 15
0 5 0
0 15 7
0 0 0
0 0 0
0 0 12
0 0 0
3 15 7
0 4 0
15 12 14
0 7 0
0 0 0
2 0 11
