P3
4 4 
 15
0 0 0
1 0 0
14 6 0
15 0 15
0 0 0
1 3 7
6 0 0
0 0 0
0 0 10
0 7 0
0 15 7
0 0 0
15 0 15
0 0 1
0 0 0
0 0 0
