P3
4 4 
 15
12 0 0
0 0 0
0 0 0
11 7 15
0 5 0
0 15 7
0 0 0
0 0 0
0 0 0
0 0 0
0 15 10
5 1 7
15 0 15
0 0 0
0 0 10
0 1 0
