P3
4 4 
 15
0 0 0
14 0 0
0 12 0
15 0 15
13 0 0
0 4 7
0 0 0
0 0 8
0 0 0
0 0 0
0 14 7
0 0 8
15 0 15
13 0 0
0 0 0
0 0 10
