P3
4 4 
 15
0 0 0
0 12 0
0 0 1
15 0 15
0 0 0
0 15 7
0 3 0
0 0 0
0 0 0
7 10 0
0 15 7
0 0 0
14 0 15
0 1 0
0 0 0
0 0 2
