P3
4 4 
 15
0 0 6
5 0 12
0 0 0
7 0 15
3 9 0
0 15 7
0 0 0
0 0 10
0 0 0
0 0 0
0 7 7
0 0 0
15 0 15
0 7 0
0 0 0
0 14 0
