P3
4 4 
 15
0 0 0
0 0 0
5 11 0
15 10 15
0 0 0
5 15 7
0 9 0
0 0 0
0 0 0
0 0 0
0 1 7
0 0 0
15 0 15
0 0 0
0 0 0
11 11 0
