P3
4 4 
 15
0 0 0
0 0 0
0 0 0
6 0 15
1 0 0
11 15 7
0 0 0
0 2 0
0 0 0
0 0 0
11 15 7
0 0 0
15 0 15
14 0 7
0 0 0
0 0 10
