P3
4 4 
 15
0 0 0
0 0 0
0 0 0
15 0 13
0 0 0
0 15 7
0 0 0
6 0 0
0 0 0
0 11 0
0 11 7
0 8 0
15 3 15
0 0 0
0 0 9
0 0 3
