P3
4 4 
 15
0 0 10
0 0 0
4 5 0
15 12 15
0 0 0
0 15 6
0 0 0
0 0 0
0 12 0
0 3 0
0 15 7
0 0 14
10 0 15
0 0 0
0 0 0
0 1 0
