P3
4 4 
 15
0 13 0
0 12 14
0 0 0
15 0 15
11 0 0
0 15 7
0 5 0
0 0 0
11 0 0
0 0 0
0 15 7
0 9 0
15 0 12
0 0 0
0 0 0
0 0 0
