P3
4 4 
 15
0 0 0
2 0 0
0 0 6
15 0 15
0 2 11
0 15 7
0 10 0
0 0 0
0 0 14
0 0 0
0 15 7
14 0 5
15 0 9
0 0 0
0 0 0
0 0 0
