P3
4 4 
 15
0 0 0
0 2 0
0 10 0
15 0 15
5 13 0
0 15 7
0 0 0
0 0 11
0 13 0
4 0 0
0 15 7
0 0 0
14 0 15
0 0 4
0 0 0
0 0 0
