P3
4 4 
 15
0 0 0
0 0 0
0 0 0
10 0 6
6 0 6
0 15 2
0 13 0
11 0 0
0 0 0
11 0 0
0 15 7
0 0 0
15 0 15
0 0 0
7 0 0
0 0 0
