P3
4 4 
 15
0 0 8
7 0 9
0 0 0
15 0 15
0 0 0
0 15 1
0 10 0
0 0 0
0 0 2
0 0 10
0 15 7
0 0 0
8 0 15
0 0 0
4 0 0
0 0 0
