P3
4 4 
 15
0 0 0
6 0 0
0 2 8
15 0 1
0 0 0
0 3 7
0 0 0
0 0 0
0 0 0
0 0 0
0 15 7
0 0 0
8 0 15
0 0 0
0 13 5
0 11 11
